<svg width="686" height="758" xmlns="http://www.w3.org/2000/svg" xmlns:xlink="http://www.w3.org/1999/xlink" overflow="hidden"><defs><clipPath id="clip0"><rect x="35" y="-1" width="686" height="758"></rect></clipPath></defs><g clip-path="url(#clip0)" transform="translate(-35 1)"><path d="M586.091 0.0684665C619.798 0.964517 649.23 10.6701 672.206 30.1198 768.425 111.789 714.806 333.578 552.301 525.729 534.537 546.805 515.951 566.563 497.365 585.169L649.837 585.169 649.837 680.504 467.595 680.504 467.595 613.161 467.595 400.592 399.336 400.592 399.336 667.826C275.32 755.915 151.468 783.248 83.8675 725.784-12.5169 644.115 41.2674 422.326 203.772 230.175 211.338 221.119 219.233 212.228 227.128 203.665L73.9988 203.665 73.9988 108.331 256.076 108.331 256.076 108.352 256.449 108.352 256.449 174.989 256.405 174.989 256.405 375.235 324.828 375.235 324.828 112.118C417.1 38.7642 511.938-1.90278 586.091 0.0684665Z" fill="#063B94" fill-rule="evenodd"></path></g></svg>