<svg width="758" height="480" xmlns="http://www.w3.org/2000/svg" xmlns:xlink="http://www.w3.org/1999/xlink" overflow="hidden"><defs><clipPath id="clip0"><rect x="-1" y="138" width="758" height="480"></rect></clipPath></defs><g clip-path="url(#clip0)" transform="translate(1 -138)"><path d="M58.3078 409.968C58.3078 409.968 43.3383 401.121 38.6255 400.369 33.9127 399.522 32.342 393.969 30.0318 392.275 27.6292 390.675 0 373.076 0 368.182 0 363.382 13.3988 364.229 20.5139 361.782 27.6292 359.335 33.9127 356.135 41.7672 356.135 45.6482 356.135 48.0507 354.63 52.8559 353.689 57.7533 352.748 65.0534 352.465 66.2547 351.242 68.6573 348.795 64.6837 365.641 62.3735 369.688 59.8785 373.829 59.1394 385.122 59.1394 389.922 59.1394 394.722 62.1887 410.815 58.3078 409.968" fill="#E60012" fill-rule="evenodd"></path><path d="M71.8733 340.835C71.8733 340.835 60.2689 327.717 55.9984 325.469 51.7279 323.22 51.9135 317.41 50.2423 315.162 48.4786 312.913 27.5902 287.426 29.0755 282.929 30.5611 278.337 43.094 283.397 50.6138 283.304 58.1335 283.304 65.0962 282.179 72.6163 284.709 76.3297 285.927 79.0219 285.271 83.8495 285.927 88.7699 286.677 95.9182 288.644 97.4037 287.895 100.375 286.302 91.462 301.013 87.9341 304.105 84.4065 307.103 80.2288 317.504 78.7435 322.095 77.3508 326.593 75.4012 342.803 71.8733 340.835" fill="#E60012" fill-rule="evenodd"></path><path d="M104.657 279.542C104.657 279.542 98.539 263.127 95.3872 259.468 92.2358 255.81 94.5531 250.464 93.719 247.743 92.8846 244.929 82.5035 213.6 85.5623 209.848 88.6211 206.19 98.446 215.382 105.491 218.103 112.442 220.823 119.394 222.417 125.512 227.483 128.571 230.015 131.259 230.297 135.615 232.735 139.972 235.174 145.811 239.677 147.479 239.489 150.816 239.208 137.191 249.619 132.834 251.12 128.478 252.715 120.877 260.875 117.911 264.534 114.76 268.379 107.159 282.731 104.657 279.542" fill="#E60012" fill-rule="evenodd"></path><path d="M161.754 230.201C161.754 230.201 161.294 212.75 159.454 208.271 157.705 203.792 161.57 199.499 161.662 196.606 161.754 193.713 162.122 160.865 166.079 158.345 170.129 155.826 176.387 167.77 182.092 172.623 187.798 177.475 193.779 181.208 197.829 188.021 199.945 191.38 202.338 192.593 205.559 196.233 208.872 199.966 212.921 206.125 214.578 206.498 217.798 207.244 201.694 212.657 197.185 212.657 192.583 212.657 182.828 217.883 178.871 220.309 174.822 223.016 163.135 234.027 161.754 230.201" fill="#E60012" fill-rule="evenodd"></path><path d="M230 205.706C230 205.706 235.161 188.974 234.885 184.113 234.609 179.252 239.678 176.541 240.691 173.83 241.705 171.119 252.489 140.084 257.097 139.056 261.706 138.028 263.826 151.395 267.697 157.845 271.568 164.295 275.992 169.904 277.743 177.663 278.573 181.495 280.6 183.458 282.444 188.039 284.379 192.619 286.315 199.817 287.697 200.752 290.462 202.528 273.503 202.341 269.171 200.939 264.84 199.537 253.964 201.126 249.263 202.248 244.747 203.182 230.092 209.726 230 205.706" fill="#E60012" fill-rule="evenodd"></path><path d="M304.085 202.055C304.085 202.055 314.806 188.37 316.285 183.808 317.764 179.247 323.402 178.502 325.343 176.361 327.192 174.22 348.451 149.271 353.073 150.016 357.787 150.761 355.014 163.98 356.308 171.334 357.602 178.782 359.82 185.484 358.711 193.304 358.157 197.214 359.266 199.727 359.451 204.661 359.635 209.595 358.804 217.042 359.82 218.345 361.854 221.045 346.048 214.715 342.443 211.736 338.931 208.85 328.117 206.43 323.402 205.685 318.781 205.034 302.698 205.778 304.085 202.055" fill="#E60012" fill-rule="evenodd"></path><path d="M558.478 545.01C529.657 567.166 517.756 576.382 463.74 578.337 417.905 580.013 391.873 559.905 371.884 540.356 383.691 542.776 396.614 543.987 411.025 543.428 474.525 541.101 493.677 528.44 527.798 502.188L504.369 471.654C475.64 493.81 463.647 503.026 409.63 504.981 356.729 506.936 330.232 479.846 308.942 458.063L303.735 452.756C281.515 430.507 247.58 405 181.942 405 121.418 405 79.7665 440.654 78 442.237L103.195 471.281C103.474 471.002 136.2 443.447 181.942 443.447 233.077 443.447 257.622 461.042 276.495 479.939L279.191 482.639C266.547 479.939 252.229 478.45 236.052 478.45 175.435 478.45 133.876 514.104 132.11 515.686L157.491 544.824C157.77 544.545 190.496 516.99 236.238 516.99 287.279 516.99 311.824 534.491 330.697 553.482L335.718 558.509C359.518 582.713 395.406 619.391 465.227 616.877 528.727 614.55 547.879 601.89 582 575.638L558.478 545.01Z" fill="#004EA2" fill-rule="evenodd"></path><path d="M232 405 756 405C756 405 638.545 270 487.413 270 336.28 270 232 405 232 405" fill="#009944" fill-rule="evenodd"></path></g></svg>