<svg xmlns="http://www.w3.org/2000/svg" xmlns:xlink="http://www.w3.org/1999/xlink" width="780.152" height="482.63" viewBox="0 0 206.41521 127.69586">
  <g>
    <path d="m 157.57219,65.382387 -3.49342,-1.233335 0.28752,-2.180425 c 6.41804,0.604844 12.53492,2.858696 17.7122,6.526339 1.20594,1.117591 2.30116,2.317323 3.30299,3.605416 3.65146,6.679416 2.6969,14.79378 -2.4343,20.522372 -2.9259,3.69378 -6.56618,6.800138 -10.72791,9.185916 -3.68258,2.27003 -7.53065,4.22643 -11.553,5.82069 -11.14482,4.26502 -22.80237,7.14113 -34.72873,8.54248 -14.58843,1.80084 -29.334927,1.88547 -43.950739,0.21653 C 56.995139,115.01565 42.368126,111.0767 28.820127,104.7221 23.076598,101.90198 17.919248,98.118605 13.594493,93.530005 10.168287,89.98433 8.2243272,85.353414 8.096137,80.513422 c 0.2563662,-4.935825 2.273764,-9.655099 5.69748,-13.345143 3.072754,-3.408782 6.686884,-6.32348 10.726644,-8.632092 5.867979,-3.356511 12.115537,-6.034746 18.597074,-8.067071 L 23.992578,78.209787 c -1.126304,1.245782 -1.727416,2.843761 -1.668921,4.485303 0.0809,1.645273 0.82637,3.209654 2.068417,4.332226 5.580491,5.5332 12.454052,9.735991 20.032023,12.246218 6.695594,2.383286 13.576624,4.130606 20.600778,5.200906 18.263543,2.97693 36.902935,3.08147 55.173945,0.30614 8.46408,-1.38516 16.76139,-3.55812 24.81353,-6.465348 5.41372,-2.154288 10.40805,-5.103837 14.85725,-8.754057 1.74235,-1.544466 3.18851,-3.368953 4.31855,-5.382612 1.75476,-3.225833 2.07587,-6.979347 0.96326,-10.486445 -1.15369,-3.454828 -3.68381,-6.353351 -7.05153,-8.045918 -0.16792,-0.08837 -0.33479,-0.174238 -0.52769,-0.263845 M 143.69066,52.966879 106.27372,0.87439851 c -0.52767,-0.61604457 -1.33413,-0.93464501 -2.14931,-0.86494951 -0.82637,0.0697096 -1.57185,0.51647906 -1.97508,1.2071969 l -15.216916,20.3481401 36.028026,48.148547 -4.71056,3.823212 h 0.50902 L 74.253097,13.236393 c -0.357181,-0.686986 -1.062832,-1.153684 -1.846888,-1.239558 -0.803971,-0.09212 -1.591761,0.195405 -2.11073,0.787789 L 46.543538,46.521467 c -9.112483,2.44551 -17.859066,5.965051 -26.059305,10.501379 -3.966329,2.163002 -7.615305,4.781504 -10.8983882,7.804477 -3.2208522,2.876119 -5.8406,6.322236 -7.7571804,10.106864 -3.407537,7.652644 -1.97881104,16.501282 3.6676428,22.794895 3.0267059,3.850588 6.7565758,7.152338 10.9817718,9.768348 5.371411,3.37269 11.085066,6.27245 16.995358,8.63831 16.997852,6.46287 34.993819,10.18403 53.261095,11.05397 22.784938,1.4897 45.689348,-0.31113 67.925438,-5.37889 12.39184,-2.73548 24.17883,-7.49085 34.88057,-14.07319 4.68941,-2.99062 8.82997,-6.75285 12.21512,-11.047737 2.97317,-3.814498 4.61346,-8.410563 4.65703,-13.13606 0.0459,-2.751666 -0.5177,-5.480928 -1.64276,-8.007334 -1.12135,-2.588632 -2.63841,-5.00552 -4.54132,-7.136161 -3.3366,-4.008645 -7.42241,-7.402491 -12.03465,-10.012279 -8.62959,-5.275582 -18.07563,-9.164754 -28.00576,-11.519411 L 137.33606,13.445472 c -0.8102,-1.122568 -2.1991,-1.727412 -3.61662,-1.642783 -1.4001,0.10206 -2.67699,0.913488 -3.31793,2.139355 l -5.58423,8.169122 21.21684,29.087259 -2.34346,1.768486" fill="#00652E" fill-rule="nonzero"></path>
  </g>
</svg>