<svg width="748" height="758" xmlns="http://www.w3.org/2000/svg" xmlns:xlink="http://www.w3.org/1999/xlink" overflow="hidden"><defs><clipPath id="clip0"><rect x="4" y="-1" width="748" height="758"></rect></clipPath></defs><g clip-path="url(#clip0)" transform="translate(-4 1)"><path d="M436.641 8.69351C436.641 11.401 433.99 11.1372 432.465 12.0617 433.128 11.8635 433.46 12.3919 433.062 12.5901 432.068 13.0522 430.411 12.3919 429.947 13.5146 429.549 14.505 429.151 15.5618 428.356 16.0239 425.506 17.4767 423.12 19.458 420.602 21.307 418.017 23.2223 415.962 26.0621 414.305 29.0339 414.173 29.2981 414.902 29.9583 414.769 30.2885 414.107 31.8737 411.522 31.9396 411.124 33.1283 410.527 34.9773 408.738 35.1755 408.208 36.4302 407.942 37.0245 408.473 38.0154 408.473 38.4114 408.407 41.3172 404.43 41.2513 402.839 43.2325 402.177 44.0911 403.701 44.4212 404.032 45.1475 401.646 45.6099 400.984 47.9213 399.459 49.3742 398.862 49.9686 399.658 51.6856 399.061 52.4119 395.35 57.2989 393.163 61.9877 393.362 68.1294 393.428 70.1107 390.644 71.4316 388.523 72.9505 387.397 73.7427 387.397 75.2619 387.993 76.1204 389.716 78.6297 390.578 81.0071 389.65 83.5827 388.987 85.498 386.866 86.0924 384.679 87.4129 383.818 87.9413 382.559 89.9886 383.155 91.7057 384.149 94.6114 387.927 95.6018 388.722 97.9796 390.114 102.074 387.993 107.357 389.782 111.056 393.693 119.046 396.278 127.433 396.211 136.348 396.211 137.207 397.537 138.198 398.664 138.264 402.972 138.396 405.888 144.141 410.859 141.104 409.401 140.971 410.064 142.028 410.262 142.424 412.052 145.594 413.908 148.764 416.625 150.811 420.933 154.113 426.5 156.095 429.417 160.783 433.128 166.661 441.545 168.51 448.372 170.822 454.271 172.869 461.495 170.293 467.659 172.076 470.442 172.869 472.828 176.039 476.01 176.567 480.715 177.359 485.488 176.897 490.193 176.501 494.369 176.171 497.815 173.199 502.388 173.067 504.973 173.001 507.226 170.359 509.944 169.633 513.655 168.576 518.361 171.086 521.012 169.897 527.11 167.057 532.346 159.793 535.659 153.585 537.781 149.623 544.276 149.359 546.861 144.934 548.583 142.028 548.12 138.132 549.578 135.16 551.367 131.396 556.272 129.216 557.465 125.386 560.116 117.197 562.502 109.404 564.954 101.083 565.75 98.3757 566.876 93.8852 564.888 90.6489 562.171 86.0264 565.087 79.3564 563.695 73.6767 562.568 69.0539 558.061 66.1481 556.868 61.3934 555.676 56.6386 558.658 51.8835 557.067 47.3929 555.477 42.836 554.416 37.9494 550.506 34.5812 549.644 33.855 548.385 33.5908 547.192 33.7886 547.457 31.213 545.071 29.9583 543.679 29.43 540.299 28.1753 539.238 24.411 536.786 22.6939 532.28 19.524 526.447 20.3825 521.476 17.6091 519.289 16.4204 520.217 13.2504 518.03 12.3259 514.384 10.6748 510.938 8.56161 507.624 6.58034 501.262 2.75008 493.904 3.34443 486.681 2.22169 479.125 1.033 471.834 3.01428 464.345 2.35358 462.224 2.15574 460.7-0.353934 458.248 0.0421549 453.475 0.900695 449.101 1.95749 445.191 5.12745 442.738 7.10873 439.093 5.06151 436.508 7.30657 436.707 7.50482 437.105 7.76902 437.105 7.96727 437.171 8.29742 436.641 8.49525 436.641 8.69351Z" fill="#E60012" fill-rule="evenodd"></path><path d="M525 229C351.314 299.157 229.463 443.04 181 610L330.554 610C344.636 468.167 410.091 331.028 525 229Z" fill="#004098" fill-rule="evenodd"></path><path d="M525 229C351.254 272.982 215.25 388.965 141.687 538L8 538C107.586 354.653 301.792 229 525 229Z" fill="#004098" fill-rule="evenodd"></path><path d="M608 164C482.487 271.81 403 431.507 403 610L550.071 610C508.212 455.002 532.679 295.305 608 164Z" fill="#004098" fill-rule="evenodd"></path><path d="M607.804 164C564.393 281.551 558.323 413.554 595.269 538L729 538C647.389 427.942 606.551 296.534 607.804 164Z" fill="#004098" fill-rule="evenodd"></path><path d="M752 756C642.306 688.561 513.016 651 374.591 651 239.012 651 112.172 690.218 4 756L752 756Z" fill="#008842" fill-rule="evenodd"></path></g></svg>