<svg width="758" height="676" xmlns="http://www.w3.org/2000/svg" xmlns:xlink="http://www.w3.org/1999/xlink" overflow="hidden"><defs><clipPath id="clip0"><rect x="-1" y="40" width="758" height="676"></rect></clipPath></defs><g clip-path="url(#clip0)" transform="translate(1 -40)"><path d="M756 356.776C743.869 180.565 579.281 41 378 41 176.645 41 11.981 180.677 0 357L148.152 218.818C148.152 218.818 177.169 183.217 206.897 217.324L245.61 257.407 343.779 157.964C343.779 157.964 375.005 114.929 418.174 157.964L507.432 252.962 547.643 214.372C547.643 214.372 581.827 177.24 619.042 214.372L756 356.776Z" fill="#004EA2" fill-rule="evenodd"></path><path d="M752 429.08 597.973 265.388C580.135 238.654 563.794 263.893 563.794 263.893L462.754 364.92C444.917 384.213 428.576 370.865 428.576 370.865 407.037 349.328 428.576 332.241 428.576 332.241L468.7 292.122 397.352 208.93C381.758 193.338 367.66 208.93 367.66 208.93L223.505 353.03C192.318 384.213 177.473 364.92 177.473 364.92 155.933 343.383 181.922 323.305 181.922 323.305L207.164 296.571 189.327 272.791C177.435 260.901 167.04 272.791 167.04 272.791L4 428.744C26.9975 565.217 141.91 674.881 290.778 706.176 295.975 629.864 275.857 573.667 262.246 545.288 247.064 548.204 228.74 541.511 215.39 526.518 197.142 505.954 195.272 477.837 211.202 463.629 227.17 449.458 254.879 454.618 273.165 475.182 287.674 491.559 291.675 512.572 284.682 527.677 300.164 557.739 325.18 621.638 318.337 710.925 332.173 712.906 346.233 714.252 360.556 714.813L360.556 511.002C347.056 503.187 337.446 483.333 337.446 459.964 337.446 429.791 353.451 405.338 373.195 405.338 392.939 405.338 408.906 429.791 408.906 459.964 408.906 483.333 399.296 503.187 385.834 511.002L385.834 715C397.763 714.776 409.542 714.065 421.209 712.906 413.805 622.535 439.121 557.888 454.715 527.64 447.759 512.535 451.723 491.484 466.27 475.145 484.518 454.58 512.265 449.421 528.195 463.591 544.162 477.762 542.292 505.916 524.006 526.481 510.694 541.474 492.333 548.167 477.189 545.251 463.39 574.003 442.861 631.359 448.881 709.279 605.526 682.882 728.03 570.376 752 429.08Z" fill="#009944" fill-rule="evenodd"></path></g></svg>