<svg width="758" height="624" xmlns="http://www.w3.org/2000/svg" xmlns:xlink="http://www.w3.org/1999/xlink" overflow="hidden"><defs><clipPath id="clip0"><rect x="-1" y="66" width="758" height="624"></rect></clipPath></defs><g clip-path="url(#clip0)" transform="translate(1 -66)"><path d="M25.3067 581.6C100.251 711.439 318.939 725.513 513.736 613.118 708.533 500.723 805.684 304.28 730.64 174.441 655.794 44.6016 437.106 30.4281 242.309 142.922 47.5123 255.317-49.6383 451.761 25.3067 581.6ZM442.46 100.105 618.223 359.783 489.647 359.783 489.647 396.654 676.414 396.654C676.414 396.654 676.414 396.654 676.414 396.753 676.414 396.753 676.513 396.753 676.513 396.753 679.388 396.753 681.668 399.032 681.668 401.907 681.668 404.286 680.082 406.268 677.901 406.862 677.901 406.862 677.802 406.961 677.802 406.961 677.802 406.961 587.987 431.542 489.548 493.091L489.548 493.587C489.548 493.587 489.35 493.488 489.151 493.389 427.292 532.043 362.162 585.267 313.487 656.332L137.823 396.654 284.54 396.654C290.389 384.859 297.13 372.47 304.962 359.783L79.7308 359.783C79.7308 359.783 79.7308 359.783 79.7308 359.684 79.7308 359.684 79.6315 359.684 79.6315 359.684 76.7567 359.684 74.4767 357.404 74.4767 354.53 74.4767 352.152 76.0628 350.169 78.2438 349.575 78.2438 349.575 78.3428 349.475 78.3428 349.475 78.1447 349.475 316.263 284.457 442.46 100.105Z" fill="#0B318F" fill-rule="evenodd"></path><path d="M678.138 407.261C678.138 407.261 678.237 407.162 678.237 407.162 680.416 406.571 682 404.597 682 402.229 682 399.368 679.723 397.099 676.851 397.099 676.851 397.099 676.752 397.099 676.752 397.099 676.752 397 676.752 397 676.752 397L490 397 490 493C588.426 431.73 678.138 407.261 678.138 407.261Z" fill="#FFFFFF" fill-rule="evenodd"></path><path d="M272.459 494.471C272.459 494.471 274.539 484.783 279.687 469.164 271.172 472.229 262.459 475.689 253.548 479.742 253.548 479.742 261.469 443.561 284.44 397L138 397 313.55 656C362.066 585.22 427.216 532.135 489 493.483 482.564 489.924 392.958 442.276 272.459 494.471Z" fill="#FFFFFF" fill-rule="evenodd"></path><path d="M77.7681 349.779C75.5866 350.374 74 352.359 74 354.741 74 357.618 76.2806 359.901 79.1563 359.901 79.1563 359.901 79.2557 359.901 79.2557 359.901 79.2557 360 79.2557 360 79.2557 360L304.65 360C337.572 306.809 389.334 249.153 468.762 217.397L468.762 245.283C475.406 242.206 482.248 239.13 489.388 236.45L489.388 360 618 360 442.286 100C316.053 284.58 77.8672 349.68 77.8672 349.68 77.8672 349.68 77.8672 349.68 77.7681 349.779Z" fill="#00A73C" fill-rule="evenodd"></path><path d="M469.305 244.821 469.305 463.869C469.305 463.869 390.104 428.682 279.263 468.626 274.09 484.386 272 494 272 494 392.99 441.568 483.035 489.441 489.602 493.009 489.901 493.108 490 493.207 490 493.207L490 492.811 490 396.271 490 359.4 490 236C482.936 238.775 476.071 241.749 469.305 244.821Z" fill="#0B318F" fill-rule="evenodd"></path><path d="M280.022 469.365C390.243 429.308 469 464.594 469 464.594L469 244.93 469 217C389.748 248.807 338.1 306.555 305.252 359.831 297.435 372.554 290.609 384.978 284.87 396.806 261.915 443.621 254 480 254 480 262.707 476.024 271.414 472.446 280.022 469.365Z" fill="#FFFFFF" fill-rule="evenodd"></path></g></svg>