<svg width="758" height="552" xmlns="http://www.w3.org/2000/svg" xmlns:xlink="http://www.w3.org/1999/xlink" overflow="hidden"><defs><clipPath id="clip0"><rect x="-1" y="102" width="758" height="552"></rect></clipPath></defs><g clip-path="url(#clip0)" transform="translate(1 -102)"><path d="M446.591 442.565C423.752 442.565 409.836 460.922 409.836 497.637L409.836 612.041C409.836 635.233 412.292 643.511 422.688 654L336 654C346.805 643.511 350.898 632.529 350.898 612.041L350.898 444.286C350.898 424.618 347.624 412.817 338.456 401.016L409.754 401.016 409.754 435.517C429.646 409.702 456.578 397 484 397L484 476.083C479.252 454.776 462.635 442.565 446.591 442.565Z" fill="#F69320" fill-rule="evenodd"></path><path d="M618.515 570.934C577.245 570.934 543.017 511.143 543.017 417.642 543.017 307.245 572.004 256.148 615.649 256.148 664.616 256.148 686.643 323.075 690.328 414.607 690.328 515.736 662.569 570.934 618.515 570.934ZM617.614 229C538.431 229 478 307.656 478 417.56 478 526.89 537.203 598 615.977 598 689.018 598 756 518.279 756 404.847 756 299.044 702.939 229 617.614 229Z" fill="#F69320" fill-rule="evenodd"></path><path d="M261 400.248C250.823 413.009 247.129 425.688 247.129 450.147L247.129 535.303C247.129 553.627 248.771 558.617 251.644 569.987 251.644 569.987 200.1 596 143.632 596 57.699 596 0 521.56 0 425.198 0 326.872 46.6188 231 141.58 231 177.201 231 200.429 241.552 217.664 242.207 228.991 242.616 240.974 238.607 240.974 238.607L240.974 329.817C240.974 329.817 238.84 326.136 236.624 319.264 230.222 299.877 210.36 258.894 158.898 258.894 108.996 258.894 68.7793 310.43 68.7793 409.819 68.7793 515.834 104.4 565.815 149.788 565.815 171.456 565.815 183.357 555.59 183.357 555.59L183.357 450.065C183.357 423.071 179.663 411.373 168.583 400.166L261 400.166Z" fill="#EB2127" fill-rule="evenodd"></path><path d="M458 355.336 385.708 355.336 385.708 324.716C364.538 350.574 333.356 361 300.123 361 250.233 361 229.883 332.514 229.883 273.901L229.883 145.755C229.883 121.62 225.78 113.329 217 102L288.882 102 288.882 264.46C288.882 311.745 302.093 328.574 332.782 328.574 359.204 328.574 386.119 313.715 386.119 262.079L386.119 145.755C386.119 126.053 382.836 114.642 373.236 102L445.117 102 445.117 313.305C445.117 336.126 448.482 344.828 458 355.336Z" fill="#EB2127" fill-rule="evenodd"></path></g></svg>