<svg width="761" height="531" xmlns="http://www.w3.org/2000/svg" xmlns:xlink="http://www.w3.org/1999/xlink" overflow="hidden"><defs><clipPath id="clip0"><rect x="-1" y="110" width="761" height="531"></rect></clipPath><linearGradient x1="288.642" y1="396.708" x2="68.3585" y2="332.292" gradientUnits="userSpaceOnUse" spreadMethod="reflect" id="fill1"><stop offset="0" stop-color="#F48120"></stop><stop offset="0.4" stop-color="#FCB813"></stop><stop offset="1" stop-color="#FCB813"></stop></linearGradient><linearGradient x1="470.429" y1="397.314" x2="690.571" y2="331.687" gradientUnits="userSpaceOnUse" spreadMethod="reflect" id="fill2"><stop offset="0" stop-color="#F48120"></stop><stop offset="0.4" stop-color="#FCB813"></stop><stop offset="1" stop-color="#FCB813"></stop></linearGradient><linearGradient x1="338.861" y1="354.275" x2="185.139" y2="171.725" gradientUnits="userSpaceOnUse" spreadMethod="reflect" id="fill3"><stop offset="0" stop-color="#F48120"></stop><stop offset="0.4" stop-color="#FCB813"></stop><stop offset="1" stop-color="#FCB813"></stop></linearGradient><linearGradient x1="382.157" y1="327.218" x2="376.843" y2="109.782" gradientUnits="userSpaceOnUse" spreadMethod="reflect" id="fill4"><stop offset="0" stop-color="#F48120"></stop><stop offset="0.4" stop-color="#FCB813"></stop><stop offset="1" stop-color="#FCB813"></stop></linearGradient><linearGradient x1="426.469" y1="359.017" x2="567.532" y2="166.983" gradientUnits="userSpaceOnUse" spreadMethod="reflect" id="fill5"><stop offset="0" stop-color="#F48120"></stop><stop offset="0.4" stop-color="#FCB813"></stop><stop offset="1" stop-color="#FCB813"></stop></linearGradient><linearGradient x1="746.505" y1="401.093" x2="287.495" y2="662.907" gradientUnits="userSpaceOnUse" spreadMethod="reflect" id="fill6"><stop offset="0" stop-color="#10B0E6"></stop><stop offset="0.3" stop-color="#10B0E6"></stop><stop offset="1" stop-color="#006EB6"></stop></linearGradient><linearGradient x1="12.8123" y1="400.802" x2="359.188" y2="584.198" gradientUnits="userSpaceOnUse" spreadMethod="reflect" id="fill7"><stop offset="0" stop-color="#98C93C"></stop><stop offset="0.3" stop-color="#98C93C"></stop><stop offset="1" stop-color="#0DB04B"></stop></linearGradient></defs><g clip-path="url(#clip0)" transform="translate(1 -110)"><path d="M153.318 364.73C152.554 364.661 152.067 363.972 152.137 363.282 152.206 362.524 152.901 362.042 153.666 362.11L282.305 378.24C273.687 356.665 246.097 326.68 234.213 317.788 234.213 317.788 227.263 312.549 214.615 313.031 184.522 314.272 114.469 314.41 89.3807 317.029 82.0834 317.925 75.8982 320.131 74.2302 325.646 72.4234 331.574 81.8055 342.603 83.0564 344.05L97.5119 360.525C171.457 444.69 243.178 410.914 276.884 400.367 279.734 399.471 282.027 398.093 283 396.163L153.318 364.73Z" fill="url(#fill1)" fill-rule="evenodd"></path><path d="M684.773 325.637C683.175 320.127 676.922 317.922 669.628 317.027 644.616 314.409 574.516 314.271 544.433 313.031 531.789 312.549 524.841 317.784 524.841 317.784 512.891 326.671 485.379 356.636 476.764 378.197L605.363 362.078 605.363 362.078C606.127 362.009 606.752 362.491 606.891 363.249 606.961 364.006 606.474 364.626 605.71 364.764 605.71 364.764 605.641 364.764 605.641 364.764L605.641 364.764 476 396.176C476.973 398.105 479.265 399.482 482.114 400.378 515.879 410.917 587.577 444.671 661.499 360.562L676.089 343.961C677.756 341.894 686.51 331.424 684.773 325.637Z" fill="url(#fill2)" fill-rule="evenodd"></path><path d="M315.268 236.91C292.609 220.126 266.555 200.359 222.763 178.026 208.905 171.021 195.808 169.009 190.681 173.102 185.622 177.194 183.613 181.771 190.057 203.341 220.061 304.395 229.761 307.169 235.374 311.954 244.936 320.139 296.559 358.909 321.296 354.678L266.555 271.797 266.555 271.797C266.07 271.172 266.209 270.34 266.763 269.924 267.387 269.439 268.218 269.577 268.634 270.132L334.254 343.304C345.548 315.769 328.987 247.036 315.268 236.91Z" fill="url(#fill3)" fill-rule="evenodd"></path><path d="M431.634 232.026C424.803 205.879 416.937 175.572 398.308 133.058 393.754 122.724 388.097 114.956 383.198 112.044 380.3 110.379 377.816 111.073 376.781 111.627 371.468 114.193 365.397 122.238 360.705 133.058 342.007 175.572 334.141 205.879 327.379 232.026 323.585 246.659 348.975 312.407 371.399 326L378.092 204.492 378.092 204.492C378.092 203.66 378.782 203.105 379.472 203.105L379.472 203.105 379.472 203.105C380.162 203.105 380.852 203.66 380.852 204.492L380.852 204.492 387.614 326C409.969 312.407 435.359 246.659 431.634 232.026Z" fill="url(#fill4)" fill-rule="evenodd"></path><path d="M568.319 173.131C563.192 168.972 550.095 171.052 536.237 178.053 492.514 200.374 466.39 220.13 443.801 236.905 430.012 247.026 413.451 315.722 424.746 343.38L490.296 270.179C490.781 269.555 491.613 269.485 492.236 269.971 492.791 270.456 492.929 271.218 492.444 271.842L492.444 271.842 437.634 354.679C462.371 358.908 514.063 320.089 523.626 311.978 529.238 307.195 538.87 304.422 568.943 203.424 575.387 181.796 573.378 177.221 568.319 173.131Z" fill="url(#fill5)" fill-rule="evenodd"></path><path d="M757.332 533.6C739.715 512.432 701.431 457.81 648.79 430.256 632.214 421.581 611.685 421.997 590.948 424.773 586.995 425.328 578.88 426.855 578.741 426.855 446.064 456.908 314.843 572.05 278.64 628.685 278.64 628.685 272.953 637.568 275.796 640.553 278.016 642.982 290.291 634.723 290.291 634.723 498.219 497.024 708.436 532.975 752.338 539.152 752.338 539.152 757.47 540.055 758.649 538.458 759.69 537.001 758.164 534.502 757.332 533.6Z" fill="url(#fill6)" fill-rule="evenodd"></path><path d="M369.673 508.234C352.262 491.305 278.663 444.112 166.911 426.908 139.303 422.693 111.833 424.904 91.855 439.207 51.4136 468.227 9.23792 516.456 0.774982 532.763 0.774982 532.763-0.820458 535.596 0.566926 537.254 2.23179 539.258 5.70014 538.567 5.70014 538.567 146.794 494.207 293.438 542.92 319.243 559.088L319.243 559.088 319.243 559.088C320.075 559.572 323.128 561.507 326.665 557.637 334.99 549 361.002 525.024 370.228 516.94 374.39 513.347 369.951 508.579 369.673 508.234Z" fill="url(#fill7)" fill-rule="evenodd"></path></g></svg>