<svg width="758" height="644" xmlns="http://www.w3.org/2000/svg" xmlns:xlink="http://www.w3.org/1999/xlink" overflow="hidden"><defs><clipPath id="clip0"><rect x="-1" y="56" width="758" height="644"></rect></clipPath></defs><g clip-path="url(#clip0)" transform="translate(1 -56)"><path d="M1.00011 400.074C0.926278 458.154 52.6028 548.557 194.713 539.332 200.25 609.441 237.162 698 375.581 698 504.255 698 550.838 609.441 550.912 531.952 550.912 531.952 752.081 539.332 754 400L1.00011 400.074Z" stroke="#009944" stroke-width="2.19906" stroke-miterlimit="8" fill="#5AB651" fill-rule="evenodd"></path><path d="M754.828 400C758.523 296.521 703.095 219.872 547.895 232.807 547.895 162.588 497.492 58 376.066 58 250.946 58 195 149.653 194.926 227.263 194.926 227.263 1 218.911 1 400L754.828 400Z" stroke="#584C9D" stroke-width="2.19906" stroke-miterlimit="8" fill="#3D62AD" fill-rule="evenodd"></path><path d="M272.144 293.727C272.144 293.727 313.97 306.072 311.462 350.424 311.462 350.424 193.434 399.728 191 518 191 518 211.876 490.872 258.645 476.087 258.645 476.087 328.724 456.351 379.107 384.944 379.107 384.944 407.36 404.681 402.491 466.256 402.491 466.256 475.004 450.216 509.454 378.809 509.454 378.809 438.121 381.248 430.744 354.194 430.744 354.194 458.997 339.41 486.069 287.666 486.069 287.666 512.478 244.57 574 229.786 574 229.786 459.071 203.914 368.042 309.842 368.042 309.694 311.462 253.071 272.144 293.727Z" stroke="#FFFFFF" stroke-width="2.19906" stroke-miterlimit="8" fill="#FFFFFF" fill-rule="evenodd"></path><path d="M9 438 748 438 745.427 445.482 745.161 446 11.3399 446Z" fill="#FFFFFF" fill-rule="evenodd"></path><path d="M39 488 712 488 706.88 492.08 701.917 495 45.5356 495 44.9638 494.546Z" fill="#FFFFFF" fill-rule="evenodd"></path><path d="M199 566 548 566 546.221 574 201.004 574Z" fill="#FFFFFF" fill-rule="evenodd"></path><path d="M0.0783555 397 755.925 397 755.926 399.418 756 399.418 755.693 405 0.620801 405 0.0741144 399.499 0 399.499Z" fill="#FFFFFF" fill-rule="evenodd"></path><path d="M117.754 404.898 16.0529 445.749 13.302 438.9 115.003 398.049Z" fill="#FFFFFF" fill-rule="evenodd"></path><path d="M245.472 399.68 249.878 403.967 123.052 534.302 114.886 532.111 243.751 399.68Z" fill="#FFFFFF" fill-rule="evenodd"></path><path d="M346.175 399.67 350.593 401.488 246.101 655.495 240.469 649.786 343.36 399.67Z" fill="#FFFFFF" fill-rule="evenodd"></path><path d="M406.205 399.664 514.836 639.958 511.797 643.85 509.542 646.165 399.464 402.67 406.114 399.664Z" fill="#FFFFFF" fill-rule="evenodd"></path><path d="M510.062 399.654 659.332 515.386 652.121 517.946 650.983 518.252 503.474 403.885 506.755 399.654Z" fill="#FFFFFF" fill-rule="evenodd"></path><path d="M632.585 397.576 748.04 438.899 745.553 445.848 630.098 404.525Z" fill="#FFFFFF" fill-rule="evenodd"></path></g></svg>