<svg width="758" height="562" xmlns="http://www.w3.org/2000/svg" xmlns:xlink="http://www.w3.org/1999/xlink" overflow="hidden"><defs><clipPath id="clip0"><rect x="-1" y="97" width="758" height="562"></rect></clipPath></defs><g clip-path="url(#clip0)" transform="translate(1 -97)"><path d="M276.823 319.788 291.216 344.398 351.187 242.465C351.187 242.465 360.193 225.679 378.795 225.679 378.795 225.679 395.586 225.679 405.771 241.329L450.128 335.395 353.586 510.444 375.765 510.444 477.105 326.981C477.105 326.981 483.67 311.416 498.105 312.594 498.105 312.594 513.718 312.594 517.885 327.57L640.309 586C711.643 534.424 756 462.528 756 382.176 756 225.679 586.862 98 378.248 98 170.139 98 1 225.679 1 382.176 1 461.308 44.137 533.835 114.292 584.78 114.292 584.78 226.406 337.751 237.811 321.008 237.811 321.008 244.418 310.196 256.412 310.196 256.454 310.196 269.038 309.018 276.823 319.788Z" fill="#083F8F" fill-rule="evenodd"></path><path d="M0 658 747 658C747 658 610.272 569.577 378.927 568.402 378.927 568.361 172.657 556.998 0 658Z" fill="#108852" fill-rule="evenodd"></path></g></svg>