<svg width="758" height="718" xmlns="http://www.w3.org/2000/svg" xmlns:xlink="http://www.w3.org/1999/xlink" overflow="hidden"><defs><clipPath id="clip0"><rect x="-1" y="19" width="758" height="718"></rect></clipPath></defs><g clip-path="url(#clip0)" transform="translate(1 -19)"><path d="M249.557 378.379 268.486 361.529 287.544 361.529 287.544 356.084 287.544 356.084C255.927 351.284 229.494 335.853 215.748 314.978L215.748 314.978 215.233 314.074 215.233 314.074C215.104 313.946 214.975 313.688 214.975 313.558 214.975 312.913 215.619 312.397 216.393 312.397 216.522 312.397 216.651 312.397 216.78 312.397L216.78 312.397 216.909 312.526 216.909 312.526C226.631 314.333 238.288 315.52 250.718 315.52 251.233 315.52 255.901 315.52 256.288 315.52 272.741 315.133 286.099 309.688 288.678 302.54L288.678 302.54 288.291 302.411 288.291 302.411C268.202 299.547 251.104 293.586 239.061 285.819L239.061 285.819 238.674 285.69 238.674 285.69C238.159 285.303 237.643 284.658 237.643 283.883 237.643 282.722 238.545 281.948 239.706 281.948L239.706 281.948 240.093 281.948 240.093 281.948C276.119 281.69 307.349 266.13 323.673 243.19L323.673 243.19 324.06 242.932 324.06 242.932C340.9 246.312 359.7 248.119 379.531 248.119 401.039 248.119 421.386 245.925 439.257 242.029L439.257 242.029 439.902 243.19 439.902 243.19C456.226 266.13 487.456 281.69 523.482 281.948L523.482 281.948 523.869 281.948 523.869 281.948C525.03 281.948 525.932 282.722 525.932 283.883 525.932 284.658 525.417 285.303 524.901 285.69L524.901 285.69 524.514 285.819 524.514 285.819C512.471 293.612 495.347 299.572 475.284 302.411L475.284 302.411 474.897 302.54 474.897 302.54C477.476 309.662 490.834 315.107 507.287 315.52 507.674 315.52 512.342 315.52 512.858 315.52 525.288 315.52 536.97 314.358 546.692 312.526L546.692 312.526 546.821 312.397 546.821 312.397C546.95 312.397 547.079 312.397 547.208 312.397 547.982 312.397 548.626 312.913 548.626 313.558 548.626 313.688 548.497 313.946 548.368 314.074L548.368 314.074 547.853 314.978 547.853 314.978C534.107 335.853 507.674 351.284 476.057 356.084L476.057 356.084 476.057 361.529 495.115 361.529 514.044 378.379 649.975 378.637 715.143 435.175 715.143 435.175C684.428 498.576 637.132 560.171 575.06 612.296 396.887 761.91 164.275 778.115 55.4471 648.319 3.22547 585.95-11.0356 501.156 8.151 413.499L8.151 413.499 95.8835 488.306 95.8835 488.306C100.938 522.548 114.168 554.03 136.32 580.505 219.256 679.181 394.437 668.42 528.021 556.249 560.798 528.767 588.005 497.647 609.126 465.108L609.126 465.108 406.738 464.85 406.738 437.497 406.738 437.497C406.738 424.13 395.855 413.241 382.368 413.241L382.368 413.241 382.368 413.241 382.368 413.241C369.138 413.241 358.256 424.13 358.256 437.497L358.256 437.497 358.256 464.85 93.4078 465.108 12.5609 395.616 12.5609 395.616C36.5441 306.411 94.3362 215.399 181.011 142.656 359.184-6.95789 591.641-23.0341 700.495 106.607 768.267 187.375 772.032 305.508 722.389 419.331L722.389 419.331 654.746 361.374 654.746 361.374C671.715 291.883 661.348 224.069 619.751 174.55 536.815 75.7709 361.505 86.5313 228.05 198.677 166.492 250.415 124.509 314.72 105.348 378.637L105.348 378.637 249.557 378.379 249.557 378.379Z" fill="#0068B7" fill-rule="evenodd"></path></g></svg>