<svg width="746" height="758" xmlns="http://www.w3.org/2000/svg" xmlns:xlink="http://www.w3.org/1999/xlink" overflow="hidden"><defs><clipPath id="clip0"><rect x="5" y="-1" width="746" height="758"></rect></clipPath></defs><g clip-path="url(#clip0)" transform="translate(-5 1)"><path d="M7.20153 381.508C7.20153 381.508 2.69558 465.054 45.7514 551L712.612 551C712.612 551 752.663 469.956 749.859 378.206L749.96 377.706C749.96 169.092 583.445 0 377.98 0 172.515 0 6 169.092 6 377.706" fill="#1F9DD9" fill-rule="evenodd"></path><path d="M59 572 697 572 680.49 597 75.01 597C75.01 597.101 59.8006 574.429 59 572Z" fill="#1F9DD9" fill-rule="evenodd"></path><path d="M95 622 661 622C661 622 556.363 758.178 375.199 755.965 375.199 755.965 211.141 761.799 95 622Z" fill="#1F9DD9" fill-rule="evenodd"></path><path d="M283.364 407.914C384.416 406.311 466.34 324.641 466.34 221.826 466.34 119.111 384.416 35.7373 283.364 35.7373 283.364 35.7373 519.019-42.3254 675.354 188.055 675.354 188.055 768.595 317.826 706.902 495.798 706.902 495.798 541.953 570.153 333.94 492.892 333.94 492.892 186.217 444.792 68.54 300.39 68.54 300.39 45.2049 276.34 42 267.221L70.6433 289.868C70.6433 289.868 76.0514 296.382 86.467 293.175 96.8827 289.868 115.911 297.584 121.62 307.004 121.62 307.004 129.131 316.824 130.233 329.25 130.333 329.35 190.223 409.418 283.364 407.914Z" fill="#FFFFFF" fill-rule="evenodd"></path><path d="M438 503 345.187 484.547C345.187 484.547 331.771 473.817 348.091 468L438 503Z" fill="#1F9DD9" fill-rule="evenodd"></path><path d="M446 487 356.962 451.963C356.962 451.963 345.27 439.413 362.058 436L446 487Z" fill="#1F9DD9" fill-rule="evenodd"></path><path d="M463 454 394.92 393.055C394.92 393.055 389.288 376.69 405.888 380.605L463 454Z" fill="#1F9DD9" fill-rule="evenodd"></path><path d="M454 466 370.93 419.002C370.93 419.002 365.239 402.703 382.013 406.603L454 466Z" fill="#1F9DD9" fill-rule="evenodd"></path><path d="M477 440 416.022 368.168C416.022 368.168 414.811 350.96 430.157 359.264L477 440Z" fill="#1F9DD9" fill-rule="evenodd"></path><path d="M490 431 446 347.115C446 347.115 447.291 329.959 460.998 340.333L490 431Z" fill="#1F9DD9" fill-rule="evenodd"></path><path d="M508 425 483 332.158C483 332.158 486.514 315.196 498.863 327.441L508 425Z" fill="#1F9DD9" fill-rule="evenodd"></path><path d="M523.391 424 518 328.378C518 328.378 525.153 312.607 535 327.18L523.391 424Z" fill="#1F9DD9" fill-rule="evenodd"></path><path d="M541 426 557.798 333.559C557.798 333.559 568.036 319.353 574 336.361L541 426Z" fill="#1F9DD9" fill-rule="evenodd"></path><path d="M558 433 588.215 341.332C588.215 341.332 602.363 332.367 606 349.592L558 433Z" fill="#1F9DD9" fill-rule="evenodd"></path><path d="M579 444 620.915 362.069C620.915 362.069 634.684 351.665 636 369.171L579 444Z" fill="#1F9DD9" fill-rule="evenodd"></path><path d="M593 453 645.296 382.705C645.296 382.705 660.671 374.972 658.85 392.446L593 453Z" fill="#1F9DD9" fill-rule="evenodd"></path><path d="M602 470 667.02 411.103C667.02 411.103 682.924 404.861 679.523 422.077L602 470Z" fill="#1F9DD9" fill-rule="evenodd"></path><path d="M603 489 680.5 443.17C680.5 443.17 697.106 436.551 693.483 454.803L603 489Z" fill="#1F9DD9" fill-rule="evenodd"></path><path d="M603 507 690.885 470C690.885 470 708.057 471.286 697.653 485.136L603 507Z" fill="#1F9DD9" fill-rule="evenodd"></path></g></svg>