<svg width="758" height="693" xmlns="http://www.w3.org/2000/svg" xmlns:xlink="http://www.w3.org/1999/xlink" overflow="hidden"><defs><clipPath id="clip0"><rect x="-1" y="31" width="758" height="693"></rect></clipPath></defs><g clip-path="url(#clip0)" transform="translate(1 -31)"><path d="M317 207 333 207 333 249 317 249Z" fill="#008B4F" fill-rule="evenodd"></path><path d="M343 207 359 207 359 249 343 249Z" fill="#008B4F" fill-rule="evenodd"></path><path d="M290 207 307 207 307 249 290 249Z" fill="#008B4F" fill-rule="evenodd"></path><path d="M469.776 401.997C469.776 350.164 428.425 308 377.561 308 326.714 308 285.347 350.164 285.347 401.997L285.347 606.199 189.433 606.199 189.433 480.864C117.005 555.128 84.1175 630.091 111.701 677.827 155.164 753.091 332.383 732.152 507.538 631.059 521.465 623.026 534.963 614.708 548 606.183L469.776 606.183 469.776 401.997ZM450.466 606.215 434.713 606.215 434.713 401.997C434.713 369.865 409.083 343.735 377.561 343.735 346.056 343.735 320.426 369.865 320.426 401.997L320.426 606.199 304.673 606.199 304.673 401.997C304.673 361.023 337.385 327.685 377.577 327.685 417.769 327.685 450.482 361.023 450.482 401.997L450.482 606.215Z" fill="#008B4F" fill-rule="evenodd"></path><path d="M370 207 386 207 386 249 370 249Z" fill="#008B4F" fill-rule="evenodd"></path><path d="M449 207 465 207 465 249 449 249Z" fill="#008B4F" fill-rule="evenodd"></path><path d="M396 207 412 207 412 249 396 249Z" fill="#008B4F" fill-rule="evenodd"></path><path d="M746.303 312.349C721.461 269.327 652.909 257.734 566.028 274.568 615.631 223.796 646.731 172.675 652.719 130.114L581.371 139.865C581.133 138.118 580.831 136.371 580.466 134.672L653.735 118.648C654.196 104.625 651.607 91.7297 645.746 80.2636L574.335 117.902C573.509 116.345 572.619 114.837 571.682 113.344L639.599 70.3697C632.007 60.2058 621.603 52.1224 608.865 46.0241L560.198 99.6702C558.896 98.4791 557.546 97.3675 556.148 96.2875L598.35 41.625C587.692 37.7818 575.732 35.0979 562.644 33.5574L540.678 87.3624C539.058 86.6954 537.406 86.0919 535.722 85.552L552.59 32.6205C542.33 31.89 531.45 31.8105 520.062 32.3505L518.124 82.4869C517.282 82.471 516.424 82.4233 515.567 82.4233 514.661 82.4233 513.772 82.471 512.851 82.5028L510.833 32.9381C500.763 33.7162 490.328 34.9391 479.543 36.6383L495.252 85.5996C493.584 86.1396 491.916 86.743 490.312 87.4101L470.109 38.2423C458.911 40.2592 447.38 42.7526 435.578 45.7382L474.842 96.3829C473.444 97.4628 472.094 98.5744 470.792 99.7655L424.27 48.7079C409.562 52.7418 394.473 57.506 379.145 62.9533L459.324 113.455C458.387 114.948 457.497 116.456 456.687 118.013L363.008 68.8928C339.675 77.8337 315.819 88.363 291.803 100.433L450.588 134.799C450.223 136.514 449.937 138.245 449.699 139.992L264.103 115.011C258.798 117.933 253.493 120.919 248.172 123.984 246.711 124.826 245.281 125.683 243.82 126.525 254.557 128.32 262.753 137.626 262.753 148.87 262.753 161.4 252.588 171.564 240.072 171.564 227.54 171.564 217.374 161.4 217.374 148.87 217.374 146.456 217.756 144.137 218.454 141.946 61.1308 241.456-31.2622 372.491 9.70075 443.415 34.5104 486.389 102.92 498.015 189.642 481.26L189.642 274.632 290.501 274.632 465.121 274.632 565.98 274.632 565.98 595C705.784 498.348 784.724 378.891 746.303 312.349ZM515.551 126.192C528.083 126.192 538.248 136.355 538.248 148.886 538.248 161.416 528.098 171.58 515.551 171.58 503.019 171.58 492.854 161.416 492.854 148.886 492.854 136.34 503.019 126.192 515.551 126.192ZM565.98 195.766 565.98 209.758 565.98 260.656 465.121 260.656 290.501 260.656 189.642 260.656 189.642 209.758 189.642 195.766 189.642 175.312 290.501 175.312 290.501 195.766 465.137 195.766 465.137 175.312 565.996 175.312 565.996 195.766Z" fill="#008B4F" fill-rule="evenodd"></path><path d="M422 207 439 207 439 249 422 249Z" fill="#008B4F" fill-rule="evenodd"></path><path d="M190 481.19 190 482C190.333 481.667 190.667 481.333 191 481 190.667 481.095 190.333 481.095 190 481.19Z" fill="#008B4F" fill-rule="evenodd"></path></g></svg>