<svg width="758" height="432" xmlns="http://www.w3.org/2000/svg" xmlns:xlink="http://www.w3.org/1999/xlink" overflow="hidden"><defs><clipPath id="clip0"><rect x="-1" y="162" width="758" height="432"></rect></clipPath></defs><g clip-path="url(#clip0)" transform="translate(1 -162)"><path d="M486.924 228.877C541.336 268.498 534.418 473.775 530.442 542.333 542.986 543.088 555.471 546.067 567.896 547 571.395 211.658 485.273 163 485.273 163 442.869 239.621 441 349.27 441 349.27L444.539 390.54C458.674 252.491 486.924 228.877 486.924 228.877Z" fill="#009D85" fill-rule="evenodd"></path><path d="M456.4 453.678C456.4 453.678 467.715 493.15 461.499 536.809 471.739 537.147 481.978 537.544 492.198 538 494.229 504.66 494.469 438.318 466.779 417.501 466.779 417.501 444.388 396.941 406 392L414.805 424.903C414.805 424.883 453.989 431.472 456.4 453.678Z" fill="#E8421F" fill-rule="evenodd"></path><path d="M351.949 382.04C351.949 382.04 364.727 419.977 368.728 465.976 370.54 486.856 370.977 515.538 371.017 535.841 373.645 535.841 376.292 535.821 378.919 535.821 388.613 535.821 398.307 535.881 408 536 406.806 497.167 401.471 415.917 378.302 367.211 355.751 319.858 339.15 316.892 329.556 312.772 314.369 307.816 287 307 287 307L291.2 337.513C291.2 337.494 339.946 325.949 351.949 382.04Z" fill="#152A8C" fill-rule="evenodd"></path><path d="M232.269 542.639C231.044 509.658 231.084 445.588 244.319 379.007 264.072 298.217 281.494 270.177 305 236 305 236 251.331 258.22 220.536 348.915 220.536 348.915 197.306 412.008 185 548 200.684 546.784 216.447 543.556 232.269 542.639Z" fill="#152A8C" fill-rule="evenodd"></path><path d="M0 593C0 593 169.297 553 378 553 378 553 603.862 553.469 756 593L0 593Z" fill="#152A8C" fill-rule="evenodd"></path></g></svg>