<svg width="757" height="442" xmlns="http://www.w3.org/2000/svg" xmlns:xlink="http://www.w3.org/1999/xlink" overflow="hidden"><defs><clipPath id="clip0"><rect x="-1" y="157" width="757" height="442"></rect></clipPath></defs><g clip-path="url(#clip0)" transform="translate(1 -157)"><path d="M728.832 563.924C724.521 388.246 617.054 237.07 462.143 196.575 449.899 194.896 437.432 194 424.815 194 231.102 194 92 370.779 92 573.479 92 581.914 92.0933 589.845 92.5412 598L92.5599 598C92.1306 590.685 92.112 583.071 92.112 575.681 92.112 443.092 164.864 326.123 272.667 281.205 314.661 251.458 365.595 232.2 424.834 232.965 593.052 235.13 722.692 382.237 722.692 572.751 722.692 581.186 722.617 589.696 722.15 598L728.552 598C729.112 587.027 729.075 574.169 728.832 563.924L728.832 563.924Z" fill="#EE9116" fill-rule="evenodd"></path><path d="M140 470C140.414 469.424 140.846 468.866 141.278 468.326 142.425 464.58 143.665 460.817 145 457 143.252 461.267 141.579 465.607 140 470L140 470Z" fill="#EE9116" fill-rule="evenodd"></path><path d="M370.728 262C335.765 262 302.743 268.916 272.483 281.537 164.742 326.408 92 443.254 92 575.704 92 583.087 92.0187 590.693 92.4477 598L98.0074 598C98.3805 551.451 113.772 506.711 140.022 470.099 141.589 465.55 143.231 461.057 144.984 456.639 183.342 359.534 267.352 293.598 369.981 293.598 417.742 293.598 465.017 310.115 505.744 338.897 581.098 371.558 634.418 446.927 648 535.867 630.276 379.089 509.252 262 370.728 262L370.728 262Z" fill="#FFE600" fill-rule="evenodd"></path><path d="M650.937 580.849C650.937 565.614 649.921 550.64 648 536 649.323 549.468 649.969 563.233 649.921 577.222 649.904 582.505 650.114 590.745 650.114 598L650.873 598C651.115 592.215 650.937 586.839 650.937 580.849L650.937 580.849Z" fill="#009742" fill-rule="evenodd"></path><path d="M649.758 577.12C649.813 563.076 649.049 549.256 647.537 535.735 633.955 446.632 580.634 371.126 505.28 338.406 479.496 327.219 451.119 321 420.858 321 352.537 321 297.239 354.822 270 384.685 282.22 382.35 294.851 381.118 307.855 381.118 310.877 381.118 313.881 381.192 316.884 381.342 337.892 365.187 374.869 347.221 421.604 347.501 526.418 348.117 626.157 447.211 626.157 578.615 626.157 584.591 625.933 591.874 625.56 598L625.634 598 650 598C649.981 590.698 649.739 582.424 649.758 577.12L649.758 577.12Z" fill="#009742" fill-rule="evenodd"></path><path d="M532 598 532 598C531.474 594.982 530.816 591.982 530 589 530.737 592 531.421 594.982 532 598L532 598Z" fill="#22298C" fill-rule="evenodd"></path><path d="M530.6 588.453C521.077 535.732 486.383 488.761 438.563 463.229 414.551 450.407 387.233 443 358.141 443 265.507 443 195.075 510.646 186 598L186.317 598C195.15 568.02 215.446 540.05 241.158 519.877 269.522 486.454 311.684 466.467 358.141 466.467 435.184 466.467 490.08 518.834 510.396 598L510.508 598 532 598C531.608 594.799 531.122 591.636 530.6 588.453L530.6 588.453Z" fill="#22298C" fill-rule="evenodd"></path><path d="M323.762 488C294.681 488 265.338 500.185 240.892 519.426 215.137 539.715 194.84 567.847 186 598L206.035 598 209.96 598C234.537 544.001 269.936 513.661 324.771 513.661 382.243 513.661 421.398 543.215 444.274 598L473 598C449.227 536.814 393.868 488 323.762 488L323.762 488Z" fill="#912589" fill-rule="evenodd"></path><path d="M755.959 563.844C755.959 345.495 589.992 156.535 378.343 158.009 163.073 159.482 0 344.749 0 563.098 0 574.678 1.0268 585.699 1.99753 596.981L49.2485 596.981C42.453 366.735 153.626 271.09 205.843 236.237 258.191 204.106 314.552 187.249 378.343 187.249 407.28 187.249 435.097 190.941 461.551 197.859 615.718 238.139 722.691 388.441 726.966 563.117 727.227 573.317 727.265 586.091 726.667 597L747.091 597 755.66 597C756.164 586.259 755.959 574.026 755.959 563.844L755.959 563.844Z" fill="#BD2228" fill-rule="evenodd"></path><path d="M317.245 381.224C314.242 381.075 311.24 381 308.22 381 295.242 381 282.599 382.233 270.386 384.569 217.244 394.734 172.045 425.846 141.26 468.058 140.831 468.637 140.421 469.198 139.992 469.796 113.775 506.495 98.3729 551.341 98 598L112.395 598 114.446 598 119.984 598C135.386 487.155 206.112 408.375 308.537 408.375 360.411 408.375 404.006 428.556 438.092 462.676 485.827 488.313 520.49 535.477 530 588.414 511.26 476.579 420.49 386.232 317.245 381.224L317.245 381.224Z" fill="#0082CA" fill-rule="evenodd"></path></g></svg>