
<svg xmlns="http://www.w3.org/2000/svg" version="1.1" id="svg2" xml:space="preserve" width="410.82385" height="500" viewBox="0 0 410.82387 499.99999"><defs id="defs6"><clipPath clipPathUnits="userSpaceOnUse" id="clipPath18"><path d="M 0,283.465 H 283.465 V 0 H 0 Z" id="path16"></path></clipPath></defs><g id="g10" transform="matrix(1.3333333,0,0,-1.3333333,-124.03827,303.05986)"><path d="m 362.12042,152.13914 c -9.75231,14.99699 -20.59595,27.51399 -31.62305,39.4616 -24.38237,6.60487 -50.73228,16.04719 -75.3076,30.5001 l -8.27824,5.19406 -8.27823,-5.19406 c -24.3539,-14.32006 -50.51401,-23.71492 -74.7825,-30.31663 -11.06823,-11.97292 -21.95299,-24.52788 -31.74642,-39.56915 33.16672,5.716 75.24117,16.80953 114.80715,38.34813 39.72731,-21.62717 81.9789,-32.72703 115.20889,-38.42405" style="fill:#007147;fill-opacity:1;fill-rule:nonzero;stroke:none;stroke-width:3.16325" id="path38"></path><path d="m 393.49959,82.587717 c -3.23918,12.064652 -7.42732,23.540943 -12.31455,34.432023 -33.84999,4.68794 -82.67798,15.61382 -125.99559,41.08435 l -8.27823,4.86825 -8.27824,-4.86825 c -43.03291,-25.29971 -91.71223,-36.2509 -125.59702,-40.98945 -4.9062,-10.9069 -9.10384,-22.402169 -12.3525,-34.488964 34.42569,3.438457 92.62641,13.456484 146.22776,42.634344 C 300.70236,95.980936 359.1245,85.991378 393.49959,82.587717" style="fill:#007147;fill-opacity:1;fill-rule:nonzero;stroke:none;stroke-width:3.16325" id="path42"></path><path d="m 399.63757,49.903391 c -32.4202,3.017745 -92.40815,12.627711 -144.45002,43.225871 l -8.27507,4.868248 -8.2814,-4.868248 C 186.94667,62.736714 127.10739,53.050829 94.544845,49.966656 93.247911,38.351186 92.798729,27.352551 93.137197,16.967586 126.07616,19.656353 189.1736,28.855096 246.91248,60.285192 304.86646,28.734893 368.20114,19.586761 401.03572,16.932791 c 0.34164,10.381801 -0.10122,21.370946 -1.39815,32.9706" style="fill:#007147;fill-opacity:1;fill-rule:nonzero;stroke:none;stroke-width:3.16325" id="path46"></path><path d="m 246.91027,33.022684 -8.2814,-4.868248 C 188.14965,-1.5295434 129.88884,-11.462162 96.861296,-14.783579 c 2.41989,-11.539552 5.921614,-22.139618 10.315374,-31.847645 34.94763,4.023659 89.37142,14.525664 139.7336,41.9415895 50.52666,-27.5044965 105.13708,-37.9843585 140.0689,-41.9795485 4.39692,9.698538 7.89865,20.289113 10.31854,31.819175 -32.90734,3.258152 -91.29469,13.1275061 -142.10921,43.004444 z" style="fill:#007147;fill-opacity:1;fill-rule:nonzero;stroke:none;stroke-width:3.16325" id="path50"></path><path d="m 369.02454,-76.041582 c -32.77764,5.507226 -75.46576,16.657698 -113.83287,39.214865 l -8.27824,4.874575 h -0.003 l -8.27824,-4.874575 c -38.37027,-22.557167 -81.05523,-33.707639 -113.83287,-39.214865 8.65783,-10.843636 17.71422,-19.06177 28.53888,-26.631438 23.7339,5.355389 51.15615,14.392807 77.23718,26.631438 v -71.663528 h 32.67009 v 71.663528 c 26.0842,-12.238631 53.50645,-21.276049 77.24035,-26.631438 10.82149,7.569668 19.88105,15.787802 28.53888,26.631438" style="fill:#b47d4f;fill-opacity:1;fill-rule:nonzero;stroke:none;stroke-width:3.16325" id="path54"></path></g></svg>
