<svg width="756" height="758" xmlns="http://www.w3.org/2000/svg" xmlns:xlink="http://www.w3.org/1999/xlink" overflow="hidden"><defs><clipPath id="clip0"><rect x="0" y="-1" width="756" height="758"></rect></clipPath></defs><g clip-path="url(#clip0)" transform="matrix(1 0 0 1 0 1)"><path d="M13.6029 376.678C13.6029 175.638 176.788 12.5921 378 12.5921 579.212 12.5921 742.397 175.638 742.397 376.678 742.397 405.987 738.921 434.645 732.185 462L745.222 462C751.524 434.645 755 405.987 755 376.678 755 168.691 586.382 0 378 0 169.835 0 1 168.691 1 376.678 1 405.987 4.47675 434.645 10.778 462L23.8156 462C17.0797 434.645 13.6029 405.987 13.6029 376.678Z" fill="#ED6C00" fill-rule="evenodd"></path><path d="M377.783 66C206.092 66 67 205.024 67 376.848 67 406.391 71.1293 435.064 78.9532 462L106.12 462C97.6436 435.064 93.0795 406.391 93.0795 376.848 93.0795 219.578 220.653 92.0668 378 92.0668 535.347 92.0668 662.92 219.578 662.92 376.848 662.92 406.608 658.357 435.064 649.881 462L677.047 462C684.653 434.847 689 406.391 689 376.848 688.783 205.024 549.474 66 377.783 66Z" fill="#ED6C00" fill-rule="evenodd"></path><path d="M378.108 142C248.289 142 143 247.22 143 376.956 143 406.895 148.644 435.533 158.847 462L216.159 462C202.7 436.617 195.102 407.546 195.102 376.956 195.102 276.075 276.945 194.068 378.108 194.068 479.055 194.068 561.116 275.858 561.116 376.956 561.116 407.763 553.517 436.617 540.058 462L597.153 462C607.356 435.533 613 406.895 613 376.956 613.217 247.22 507.928 142 378.108 142Z" fill="#ED6C00" fill-rule="evenodd"></path><path d="M377.892 226C294.618 226 227 293.522 227 376.676 227 408.374 236.784 437.684 253.526 462L502.475 462C519.216 437.684 529 408.374 529 376.676 528.783 293.522 461.164 226 377.892 226Z" fill="#ED6C00" fill-rule="evenodd"></path><path d="M36.9003 513.785C46.6767 513.785 55.3664 518.083 60.5804 524.744 67.9667 533.984 80.1324 540 93.602 540 107.288 540 119.237 533.984 126.624 524.744 131.837 518.083 140.527 513.785 150.303 513.785 160.079 513.785 168.769 518.083 173.983 524.744 181.37 533.984 193.535 540 207.005 540 220.691 540 232.64 533.984 240.026 524.744 245.457 518.083 253.93 513.785 263.706 513.785 273.482 513.785 282.172 518.083 287.386 524.744 294.772 533.984 306.938 540 320.407 540 334.094 540 346.042 533.984 353.429 524.744 358.643 518.298 366.681 514 376.022 513.785 385.364 514 393.62 518.298 398.616 524.744 406.003 533.984 418.168 540 431.638 540 445.324 540 457.273 533.984 464.659 524.744 469.873 518.083 478.563 513.785 488.339 513.785 498.115 513.785 506.805 518.083 512.019 524.744 519.406 533.984 531.571 540 545.04 540 558.727 540 570.676 533.984 578.062 524.744 583.493 518.083 591.966 513.785 601.742 513.785 611.518 513.785 620.208 518.083 625.422 524.744 632.808 533.984 644.974 540 658.443 540 672.13 540 684.078 533.984 691.465 524.744 696.896 518.083 705.369 513.785 715.145 513.785 719.489 513.785 723.617 514.645 727.31 516.149 730.352 508.198 733.393 500.033 736 491.868 730.569 489.289 724.269 488 717.534 488 703.848 488 691.899 494.017 684.513 503.256 679.299 509.917 670.609 514.215 660.833 514.215 651.057 514.215 642.367 509.917 637.153 503.256 629.767 494.017 617.601 488 603.914 488 590.228 488 578.279 494.017 570.893 503.256 565.679 509.917 556.989 514.215 547.213 514.215 537.437 514.215 528.747 509.917 523.533 503.256 516.147 494.017 503.981 488 490.512 488 476.825 488 464.659 494.017 457.273 503.256 452.059 509.917 443.369 514.215 433.593 514.215 423.817 514.215 415.127 509.917 409.913 503.256 402.526 494.017 390.361 488 376.892 488 363.205 488 351.256 494.017 343.87 503.256 338.656 509.702 330.618 514 321.276 514.215 311.935 514 303.679 509.702 298.683 503.256 291.296 494.017 279.13 488 265.661 488 251.975 488 240.026 494.017 232.64 503.256 227.426 509.917 218.736 514.215 208.96 514.215 199.184 514.215 190.494 509.917 185.28 503.256 177.894 494.017 165.728 488 152.258 488 138.572 488 126.624 494.017 119.237 503.256 114.023 509.917 105.333 514.215 95.5571 514.215 85.7811 514.215 77.091 509.917 71.8773 503.256 64.4907 494.017 52.3249 488 38.8558 488 31.252 488 24.0829 489.934 18 493.372 20.3897 500.893 22.9965 508.413 26.038 515.719 29.7315 514.43 33.2072 513.785 36.9003 513.785Z" fill="#004098" fill-rule="evenodd"></path><path d="M686.058 574.341C680.844 581.039 672.154 585.36 662.378 585.36 652.602 585.36 643.912 581.039 638.698 574.341 631.312 565.05 619.146 559 605.459 559 591.772 559 579.824 565.05 572.437 574.341 567.223 581.039 558.533 585.36 548.757 585.36 538.981 585.36 530.291 581.039 525.077 574.341 517.691 565.05 505.525 559 492.055 559 478.369 559 466.203 565.05 458.816 574.341 453.602 581.039 444.913 585.36 435.136 585.36 425.36 585.36 416.67 581.039 411.456 574.341 404.07 565.05 391.904 559 378.434 559 364.748 559 352.799 565.05 345.413 574.341 340.199 580.823 332.16 585.144 322.819 585.36 313.477 585.144 305.222 580.823 300.225 574.341 292.839 565.05 280.673 559 267.203 559 253.517 559 241.568 565.05 234.182 574.341 228.968 581.039 220.278 585.36 210.502 585.36 200.726 585.36 192.035 581.039 186.822 574.341 179.435 565.05 167.269 559 153.8 559 140.113 559 128.164 565.05 120.778 574.341 115.564 581.039 106.874 585.36 97.0983 585.36 87.3218 585.36 78.632 581.039 73.4179 574.341 67.335 566.778 58.4278 561.593 48 559.864 63.2073 587.521 81.8906 613.233 103.615 636.136 113.609 634.191 122.082 629.006 127.947 621.659 133.161 614.961 141.851 610.64 151.627 610.64 161.404 610.64 170.094 614.961 175.308 621.659 182.694 630.95 194.86 637 208.329 637 222.016 637 233.964 630.95 241.351 621.659 246.782 614.961 255.255 610.64 265.031 610.64 274.807 610.64 283.497 614.961 288.711 621.659 296.097 630.95 308.263 637 321.733 637 335.419 637 347.368 630.95 354.754 621.659 359.969 615.177 368.007 610.856 377.348 610.64 386.69 610.856 394.945 615.177 399.942 621.659 407.328 630.95 419.495 637 432.964 637 446.651 637 458.599 630.95 465.986 621.659 471.2 614.961 479.889 610.64 489.665 610.64 499.442 610.64 508.132 614.961 513.346 621.659 520.732 630.95 532.898 637 546.368 637 560.054 637 572.003 630.95 579.389 621.659 584.82 614.961 593.293 610.64 603.069 610.64 612.845 610.64 621.536 614.961 626.749 621.659 632.832 629.222 642.174 634.623 652.602 636.352 674.109 613.665 692.793 588.169 708 560.513 699.31 562.889 691.489 567.859 686.058 574.341Z" fill="#004098" fill-rule="evenodd"></path><path d="M626.66 655.134C621.452 648.366 612.771 644 603.005 644 593.239 644 584.558 648.366 579.35 655.134 571.971 664.522 560.035 670.635 546.363 670.635 532.691 670.635 520.755 664.522 513.377 655.134 508.168 648.366 499.488 644 489.721 644 479.956 644 471.275 648.366 466.067 655.134 458.688 664.522 446.535 670.635 433.08 670.635 419.408 670.635 407.472 664.522 400.093 655.134 395.102 648.585 386.855 644.218 377.524 644 368.192 644.218 359.945 648.585 354.954 655.134 347.575 664.522 335.639 670.635 321.967 670.635 308.295 670.635 296.359 664.522 288.98 655.134 283.772 648.366 275.091 644 265.325 644 255.56 644 246.879 648.366 241.671 655.134 234.292 664.522 222.356 670.635 208.684 670.635 195.012 670.635 183.076 664.522 175.697 655.134 170.489 648.366 161.808 644 152.042 644 142.276 644 133.596 648.366 128.387 655.134 127.736 656.008 126.868 656.881 126 657.755 192.841 718.667 281.602 756 379.043 756 476.05 756 564.376 719.103 631 658.628 628.613 657.755 627.528 656.445 626.66 655.134Z" fill="#004098" fill-rule="evenodd"></path></g></svg>