<svg width="680" height="758" xmlns="http://www.w3.org/2000/svg" xmlns:xlink="http://www.w3.org/1999/xlink" overflow="hidden"><defs><clipPath id="clip0"><rect x="38" y="-1" width="680" height="758"></rect></clipPath></defs><g clip-path="url(#clip0)" transform="translate(-38 1)"><path d="M693.772 307.881C654.181 232.685 556.362 192.869 434.93 219.573L449.155 163C442.622 180.125 420.083 192.134 420.083 192.134 419.999 192.191 419.914 192.276 419.801 192.304 419.801 192.304 71.5107 364.228 63.2815 572.691 61.4432 618.809 67.806 642.432 106.605 684.255 106.605 684.255-13.3844 500.83 403.314 277.729 410.977 273.236 416.379 267.839 420.14 262.724 417.425 272.445 414.993 279.736 413.013 285.048 402.465 316.556 383.575 361.939 349.837 393.9 352.976 391.78 356.172 389.661 359.452 387.654 430.745 343.91 506.251 346.454 528.083 393.363 549.914 440.243 509.814 513.744 438.493 557.488 367.201 601.232 291.695 598.688 269.863 551.78 252.132 513.659 275.292 457.99 322.858 414.98 319.041 417.637 314.431 420.745 309.511 423.938 234.372 473.617 138.335 547.597 130.756 639.409 130.756 639.409 125.326 691.065 174.137 726.332 189.436 736.816 203.887 741.648 219.525 746.197 224.107 747.356 228.858 748.458 233.863 749.476 307.56 764.339 412.703 756.794 515.131 695.361 697.024 586.368 756.694 427.358 693.772 307.881Z" fill="#004EA2" fill-rule="evenodd"></path><path d="M414.964 166.481C434.56 156.73 445.107 145.509 452.572 134.711 462.271 120.72 468.549 95.8468 468.549 95.8468L491 0C467.898 42.3977 409.507 76.6265 409.507 76.6265 266.794 156.701-49.1124 368.52 60.7708 630 60.7708 629.972-29.856 401.957 414.964 166.481Z" fill="#6FBA2C" fill-rule="evenodd"></path><path d="M388.764 308.05C321.689 340.803 145.522 440.675 107.553 577.145 100.107 601.053 94.8407 646.326 115.849 682.273 148.976 734.64 219.987 746 219.987 746 219.675 745.915 219.392 745.83 219.081 745.746 203.423 741.168 188.955 736.335 173.637 725.879 124.768 690.61 130.233 638.922 130.233 638.922 137.849 547.104 233.973 473.118 309.203 423.436 314.157 420.243 318.744 417.134 322.567 414.478 329.135 409.928 333.467 406.706 333.467 406.706 339.187 402.637 344.538 398.144 349.578 393.368 383.356 361.405 402.269 316.019 412.83 284.509 412.887 284.339 412.944 284.17 413 284 405.129 301.154 392.954 306.071 388.764 308.05Z" fill="#6FBA2C" fill-rule="evenodd"></path></g></svg>