<svg width="760" height="552" xmlns="http://www.w3.org/2000/svg" xmlns:xlink="http://www.w3.org/1999/xlink" overflow="hidden"><defs><clipPath id="clip0"><rect x="-1" y="102" width="760" height="552"></rect></clipPath></defs><g clip-path="url(#clip0)" transform="translate(1 -102)"><path d="M79 653 334 653 334 514C334 514 194.748 548.786 133.332 548.786L79 653Z" fill="#072199" fill-rule="evenodd"></path><path d="M383 501.561 383 654 639.649 651.704 560.934 491.181C560.934 491.181 681.563 439.236 727.588 378.012 727.588 378.012 858.445 245.231 577.279 236 577.279 236 800.186 240.592 660.104 373.42 660.104 373.372 548.699 462.291 383 501.561" fill="#072199" fill-rule="evenodd"></path><path d="M54.2501 371.029C54.2501 371.029-61.4601 470.373 185.328 444.963L360.497 103 509 397.588C509 397.588 418.854 432.234 377.923 446.111L377.923 412.614 413.78 412.614 413.78 350.212 401.476 350.212 401.476 319.012 390.178 319.012 390.178 297.047 369.688 297.047 369.688 172.292 362.507 172.292 362.507 136.498 358.39 136.498 358.39 172.292 350.204 172.292 350.204 297.047 328.709 297.047 328.709 317.863 319.517 317.863 319.517 349.064 306.208 349.064 306.208 412.614 342.065 412.614 342.065 455.347C342.065 455.347 158.758 514.255 37.8774 478.46 37.8774 478.46-57.3908 454.199 54.2501 371.029" fill="#209B31" fill-rule="evenodd"></path><path d="M538 236C538 255.889 521.862 272 502 272 482.138 272 466 255.889 466 236 466 216.112 482.138 200 502 200 521.916 200 538 216.112 538 236" fill="#DC3D2F" fill-rule="evenodd"></path></g></svg>