<svg width="758" height="736" xmlns="http://www.w3.org/2000/svg" xmlns:xlink="http://www.w3.org/1999/xlink" overflow="hidden"><defs><clipPath id="clip0"><rect x="-1" y="10" width="758" height="736"></rect></clipPath></defs><g clip-path="url(#clip0)" transform="translate(1 -10)"><path d="M728 723.041C728 735.213 590.109 745 420 745 249.891 745 112 735.131 112 723.041 112 710.869 249.891 701 420 701 590.027 701 728 710.869 728 723.041Z" fill="#176613" fill-rule="evenodd"></path><path d="M623.877 131.92C556.387 127.338 533.411 215.326 533.411 215.326 321.333 83.2914 168.912 239.965 168.912 239.965 314.122 280.566 396.888 360.376 396.888 360.376 351.899 286.378 213.901 229.815 213.901 229.815 234.305 215.326 261.84 203.702 261.84 203.702 405.574 139.854 544.966 247.25 544.966 247.25 555.127 209.514 576.925 176.199 576.925 176.199 613.227 125.448 662.559 171.86 662.559 171.86 646.58 196.499 634.943 240.047 634.943 240.047 597.166 370.608 515.875 438.795 515.875 438.795 379.351 560.598 190.628 527.282 190.628 527.282L170.305 570.748C213.901 556.259 280.687 548.974 280.687 548.974 420.079 530.147 489.815 480.787 489.815 480.787 620.521 399.586 662.641 226.95 662.641 226.95 671.328 196.499 690.257 164.575 690.257 164.575 665.591 139.936 637.975 134.124 637.975 134.124 633.074 132.942 628.377 132.226 623.877 131.92ZM525.79 11.0119C614.805 10.3161 689.397 40.3165 728.445 101.218 806.54 222.939 712.957 422.014 519.481 545.945 325.922 669.877 105.731 671.514 27.5541 549.793-50.5414 427.99 43.0419 228.914 236.6 104.983 333.338 43.0995 436.776 11.7076 525.79 11.0119Z" fill="#081059" fill-rule="evenodd"></path></g></svg>