<svg id="Layer_1" xmlns="http://www.w3.org/2000/svg" viewBox="0 0 698.54 1064.87">
  <g>
    <path d="M847.05,1157.92c-.45,12.6-9,17.61-23.41,22.58,0,0-133.2,39.36-323.85,39.36s-323.45-39.36-323.45-39.36c-13.4-4.31-23-10-23.41-22.58,0-1.41-4.93-130.25,0-275,5.18-151.58,35.22-286.5,36.5-292.3,0-.2.08-.4.15-.6C204,531.52,233.6,447.52,292.4,380c36.93-42.42,80.42-71.74,128.3-87-4.66-16.14-10.34-35.93-11.09-39.45-2.5-11.54,3.12-19.13,13.67-19.13h18.86V202.81A47.84,47.84,0,0,1,490,155h20a47.83,47.83,0,0,1,47.83,47.82v31.64h18.89c10.8,0,16.08,9.41,13.66,19.13-.79,3.12-6.49,23.13-11.18,39.44,47.92,15.21,91.43,44.54,128.37,87C766.4,447.52,796,531.52,810.44,590.07c0,.2.08.4.14.6,1.27,5.8,31.3,140.72,36.47,292.3C852,1027.67,847.1,1156.51,847.05,1157.92Z" transform="translate(-150.73 -154.99)" style="fill:#1d1d1b"></path>
    <path d="M235.11,601c-1.41,6.51-30.45,139.24-35.38,283.54-1.63,47.92-2.17,89-2.17,131.21,0,54,.88,92.42,1.53,117.91,0,.49,119.68,39.27,300.7,39.27s301.09-35.72,301.11-39.27c.64-25.49,1.54-63.93,1.54-117.91,0-42.2-.55-83.29-2.2-131.21-4.91-144.3-34-277-35.34-283.54C748.94,536.56,683,327.73,500,327.73S251.05,536.56,235.11,601Z" transform="translate(-150.73 -154.99)" style="fill:#ffdf00"></path>
    <path d="M407,725.23A24.6,24.6,0,0,1,382.6,750h0a24.59,24.59,0,0,1-24.43-24.73V650.81a24.61,24.61,0,0,1,24.43-24.75h0A24.61,24.61,0,0,1,407,650.81Z" transform="translate(-150.73 -154.99)" style="fill:#1d1d1b"></path>
    <path d="M645.56,725.23A24.59,24.59,0,0,1,621.14,750h0a24.6,24.6,0,0,1-24.44-24.73V650.81a24.61,24.61,0,0,1,24.44-24.75h0a24.61,24.61,0,0,1,24.42,24.75Z" transform="translate(-150.73 -154.99)" style="fill:#1d1d1b"></path>
    <path d="M501.86,955.32c-88.7,0-124-52.09-125.48-54.32-6.23-9.42-4.52-22.72,3.73-29.88s20.07-5.22,26.38,4.16l-.16-.24c1.07,1.55,26.88,37.41,95.53,37.41h0c68.64,0,94.46-35.86,95.54-37.41l-.17.24c6.33-9.38,18.12-11.27,26.39-4.12s10,20.42,3.72,29.88c-1.44,2.21-36.76,54.28-125.48,54.28Z" transform="translate(-150.73 -154.99)" style="fill:#1d1d1b"></path>
  </g>
</svg>
