<svg width="758" height="712" xmlns="http://www.w3.org/2000/svg" xmlns:xlink="http://www.w3.org/1999/xlink" overflow="hidden"><defs><clipPath id="clip0"><rect x="-1" y="22" width="758" height="712"></rect></clipPath></defs><g clip-path="url(#clip0)" transform="translate(1 -22)"><path d="M184.27 544 182.68 543.901C80.2079 538.64 0 454.073 0 351.64 0 245.435 86.5689 158.982 192.917 158.982 194.01 158.982 195.103 158.982 196.296 158.982 220.647 79.6758 295.09 23 380.566 23 466.042 23 540.485 79.6758 564.935 159.081 607.474 158.089 647.031 170.198 680.626 194.814 728.73 230.05 745.925 271.54 752.385 298.438 756.659 316.205 756.261 333.575 755.566 343.005 755.268 346.975 751.59 349.655 747.714 348.861L716.307 342.112C604.095 318.091 509.773 342.707 427.876 417.15 360.39 478.689 286.045 539.137 185.959 544L184.27 544ZM192.917 223.996C122.449 223.996 65.1009 281.267 65.1009 351.64 65.1009 419.036 117.38 474.62 184.468 478.987 262.291 474.62 323.317 424.594 384.144 369.209 463.954 296.553 554.499 263.202 658.362 269.257 660.648 269.356 662.039 266.775 660.548 265.088 648.323 250.696 600.219 216.651 544.759 226.179L515.538 231.043C513.351 231.44 511.364 229.852 511.065 227.668L507.09 198.387C498.741 135.458 444.275 88.0135 380.566 88.0135 316.856 88.0135 262.391 135.458 253.943 198.387L249.967 228.065C249.669 230.249 247.582 231.738 245.395 231.341L215.876 225.981C208.123 224.69 200.471 223.996 192.917 223.996Z" fill="#1C7C38" fill-rule="evenodd"></path><path d="M462 298.243C441.674 276.001 412.48 262 379.898 262 318.62 262 269 311.449 269 372.515 269 393.963 275.178 414.021 285.839 431 316.926 411.737 346.22 386.417 375.414 359.806 403.213 334.783 432.009 314.229 462 298.243Z" fill="#F18D00" fill-rule="evenodd"></path><path d="M423.392 484.742C318.284 580.535 219.137 632.804 79.8552 576.759 75.4839 574.97 70.7153 578.448 71.0134 583.218 72.1062 603.887 76.4772 623.761 83.6303 642.244 85.0209 645.921 88.2001 648.703 91.9751 649.896 125.355 659.932 157.841 665 189.731 665 223.509 665 256.69 659.336 289.573 648.107 361.499 623.563 419.716 576.063 467.203 532.738 541.712 464.768 620.592 428.299 747.457 468.842 751.629 470.234 756 467.153 756 462.681L756 408.524C756 405.643 754.013 403.059 751.232 402.264 593.868 358.143 497.603 417.07 423.392 484.742Z" fill="#1C7C38" fill-rule="evenodd"></path><path d="M447.79 612.69C415.478 642.81 382.767 666.369 349.56 683.466 345.782 685.355 344.887 690.126 347.472 693.407 359.403 708.218 373.422 721.14 389.23 731.876 391.318 733.268 394.002 733.367 396.19 732.174 428.9 713.486 460.914 689.53 492.232 660.305 569.086 588.634 633.213 542.412 747.251 585.155 751.526 586.746 756 583.565 756 579.092L756 524.419C756 521.536 754.111 519.052 751.427 518.157 614.025 475.015 528.621 537.342 447.79 612.69Z" fill="#1C7C38" fill-rule="evenodd"></path></g></svg>